<svg xmlns="http://www.w3.org/2000/svg" xmlns:xlink="http://www.w3.org/1999/xlink" xmlns:lucid="lucid" width="1580" height="833"><g transform="translate(11.333333333333371 -7.500000000000057)" lucid:page-tab-id="0_0"><path d="M0 0h1760v1360H0z" fill="#fff"/><path d="M128.67 44.5c0-3.3 2.68-6 6-6h428c3.3 0 6 2.7 6 6v205c0 3.3-2.7 6-6 6h-428c-3.32 0-6-2.7-6-6z" stroke="#5e5e5e" stroke-width="3" fill="#fff"/><path d="M128.67 73.7h440m-440 64.17h440" stroke="#5e5e5e" stroke-width="3" fill="none"/><use xlink:href="#a" transform="matrix(1,0,0,1,136.66666666666663,46.5) translate(141.84444444444443 13.2)"/><use xlink:href="#b" transform="matrix(1,0,0,1,140.66666666666663,81.7) translate(0 28.944444444444443)"/><use xlink:href="#c" transform="matrix(1,0,0,1,140.66666666666663,81.7) translate(19.1358024691358 28.944444444444443)"/><use xlink:href="#b" transform="matrix(1,0,0,1,140.66666666666663,145.86666666666667) translate(0 28.77777777777778)"/><use xlink:href="#d" transform="matrix(1,0,0,1,140.66666666666663,145.86666666666667) translate(19.1358024691358 28.77777777777778)"/><use xlink:href="#b" transform="matrix(1,0,0,1,140.66666666666663,145.86666666666667) translate(0 55.44444444444445)"/><use xlink:href="#e" transform="matrix(1,0,0,1,140.66666666666663,145.86666666666667) translate(19.1358024691358 55.44444444444445)"/><use xlink:href="#f" transform="matrix(1,0,0,1,140.66666666666663,145.86666666666667) translate(137.53086419753086 55.44444444444445)"/><use xlink:href="#b" transform="matrix(1,0,0,1,140.66666666666663,145.86666666666667) translate(0 82.11111111111111)"/><use xlink:href="#g" transform="matrix(1,0,0,1,140.66666666666663,145.86666666666667) translate(19.1358024691358 82.11111111111111)"/><path d="M908.67 33.5c0-3.3 2.68-6 6-6h348c3.3 0 6 2.7 6 6v248c0 3.3-2.7 6-6 6h-348c-3.32 0-6-2.7-6-6z" stroke="#5e5e5e" stroke-width="3" fill="#fff"/><path d="M908.67 62.7h360m-360 102.57h360" stroke="#5e5e5e" stroke-width="3" fill="none"/><use xlink:href="#h" transform="matrix(1,0,0,1,916.6666666666666,35.50000000000006) translate(61.93333333333335 13.2)"/><use xlink:href="#i" transform="matrix(1,0,0,1,920.6666666666666,70.70000000000006) translate(0 28.74444444444444)"/><use xlink:href="#j" transform="matrix(1,0,0,1,920.6666666666666,70.70000000000006) translate(0 50.43333333333332)"/><use xlink:href="#k" transform="matrix(1,0,0,1,920.6666666666666,70.70000000000006) translate(0 69.63333333333334)"/><use xlink:href="#l" transform="matrix(1,0,0,1,920.6666666666666,173.26666666666674) translate(0 28.64444444444444)"/><use xlink:href="#m" transform="matrix(1,0,0,1,920.6666666666666,173.26666666666674) translate(0 50.33333333333333)"/><use xlink:href="#n" transform="matrix(1,0,0,1,920.6666666666666,173.26666666666674) translate(0 69.53333333333333)"/><use xlink:href="#o" transform="matrix(1,0,0,1,920.6666666666666,173.26666666666674) translate(0 88.73333333333333)"/><path d="M906.17 157.5H600.92" stroke="#5e5e5e" stroke-width="2" fill="none"/><path d="M907.17 158.5h-1.03v-2h1.03z" fill="#5e5e5e"/><path d="M571.58 157.5l14.85-14.85 15.15 14.85-15.15 14.85z" stroke="#5e5e5e" stroke-width="2" fill="#5e5e5e"/><path d="M608.67 444.5c0-3.3 2.68-6 6-6h348c3.3 0 6 2.7 6 6v144c0 3.3-2.7 6-6 6h-348c-3.32 0-6-2.7-6-6z" stroke="#5e5e5e" stroke-width="3" fill="#fff"/><path d="M608.67 473.7h360m-360 64.17h360" stroke="#5e5e5e" stroke-width="3" fill="none"/><use xlink:href="#p" transform="matrix(1,0,0,1,616.6666666666666,446.5) translate(97.64444444444445 13.2)"/><use xlink:href="#q" transform="matrix(1,0,0,1,620.6666666666666,545.8666666666667) translate(0 23.7)"/><path d="M1188.67 444.5c0-3.3 2.68-6 6-6h348c3.3 0 6 2.7 6 6v152c0 3.3-2.7 6-6 6h-348c-3.32 0-6-2.7-6-6z" stroke="#5e5e5e" stroke-width="3" fill="#fff"/><path d="M1188.67 473.7h360m-360 64.17h360" stroke="#5e5e5e" stroke-width="3" fill="none"/><use xlink:href="#r" transform="matrix(1,0,0,1,1196.6666666666665,446.5) translate(99.37777777777778 13.2)"/><use xlink:href="#s" transform="matrix(1,0,0,1,1200.6666666666665,545.8666666666667) translate(0 28.944444444444443)"/><use xlink:href="#t" transform="matrix(1,0,0,1,1200.6666666666665,545.8666666666667) translate(19.1358024691358 28.944444444444443)"/><path d="M8.67 624.5c0-3.3 2.68-6 6-6h348c3.3 0 6 2.7 6 6v190c0 3.3-2.7 6-6 6h-348c-3.32 0-6-2.7-6-6z" stroke="#5e5e5e" stroke-width="3" fill="#fff"/><path d="M8.67 653.7h360m-360 64.17h360" stroke="#5e5e5e" stroke-width="3" fill="none"/><use xlink:href="#u" transform="matrix(1,0,0,1,16.66666666666663,626.5) translate(94.04444444444445 13.2)"/><use xlink:href="#s" transform="matrix(1,0,0,1,20.66666666666663,725.8666666666667) translate(0 28.74444444444444)"/><use xlink:href="#v" transform="matrix(1,0,0,1,20.66666666666663,725.8666666666667) translate(19.1358024691358 28.74444444444444)"/><use xlink:href="#w" transform="matrix(1,0,0,1,20.66666666666663,725.8666666666667) translate(0 50.43333333333332)"/><use xlink:href="#x" transform="matrix(1,0,0,1,20.66666666666663,725.8666666666667) translate(13.777777777777779 50.43333333333332)"/><use xlink:href="#w" transform="matrix(1,0,0,1,20.66666666666663,725.8666666666667) translate(0 69.63333333333334)"/><use xlink:href="#y" transform="matrix(1,0,0,1,20.66666666666663,725.8666666666667) translate(13.777777777777779 69.63333333333334)"/><path d="M788.67 436v-67c0-3.3 2.68-6 6-6h288c3.3 0 6-2.7 6-6v-37.25" stroke="#5e5e5e" stroke-width="2" fill="none"/><path d="M789.67 437h-2v-1.03h2z" fill="#5e5e5e"/><path d="M1088.67 290.4l14.85 14.86-14.85 15.15-14.85-15.14z" stroke="#5e5e5e" stroke-width="2" fill="#5e5e5e"/><path d="M1368.67 436v-67c0-3.3-2.7-6-6-6h-268c-3.32 0-6-2.7-6-6v-67" stroke="#5e5e5e" stroke-width="2" fill="none"/><path d="M1369.67 437h-2v-1.03h2zM1089.67 290.03h-2V289h2z" fill="#5e5e5e"/><path d="M1088.67 290v67c0 3.3-2.7 6-6 6h-288c-3.32 0-6 2.7-6 6v66.18" stroke="#5e5e5e" stroke-width="2" fill="none"/><path d="M1089.67 290.03h-2V289h2z" fill="#5e5e5e"/><path d="M778.5 417.82l10.17 17.22 10.18-17.22M1088.67 290v67c0 3.3 2.68 6 6 6h268c3.3 0 6 2.7 6 6v66.18" stroke="#5e5e5e" stroke-width="2" fill="none"/><path d="M1089.67 290.03h-2V289h2z" fill="#5e5e5e"/><path d="M1358.5 417.82l10.17 17.22 10.18-17.22M788.67 597v137.57c0 3.32-2.7 6-6 6H394.65" stroke="#5e5e5e" stroke-width="2" fill="none"/><path d="M789.67 597.03h-2V596h2z" fill="#5e5e5e"/><path d="M372.13 740.57l21.52-12.72v25.45z" stroke="#5e5e5e" stroke-width="2" fill="#fff"/><path d="M1368.67 605v129.57c0 3.32-2.7 6-6 6H394.65" stroke="#5e5e5e" stroke-width="2" fill="none"/><path d="M1369.67 605.03h-2V604h2z" fill="#5e5e5e"/><path d="M372.13 740.57l21.52-12.72v25.45z" stroke="#5e5e5e" stroke-width="2" fill="#fff"/><defs><path d="M143 4C61 4 22-44 18-125c-5-107 100-154 193-111 17 8 29 25 37 43l-32 9c-13-25-37-40-76-40-61 0-88 39-88 99 0 61 29 100 91 101 35 0 62-11 79-27v-45h-74v-28h105v86C228-13 192 4 143 4" id="z"/><path d="M141-36C126-15 110 5 73 4 37 3 15-17 15-53c-1-64 63-63 125-63 3-35-9-54-41-54-24 1-41 7-42 31l-33-3c5-37 33-52 76-52 45 0 72 20 72 64v82c-1 20 7 32 28 27v20c-31 9-61-2-59-35zM48-53c0 20 12 33 32 33 41-3 63-29 60-74-43 2-92-5-92 41" id="A"/><path d="M59-47c-2 24 18 29 38 22v24C64 9 27 4 27-40v-127H5v-23h24l9-43h21v43h35v23H59v120" id="B"/><path d="M100-194c63 0 86 42 84 106H49c0 40 14 67 53 68 26 1 43-12 49-29l28 8c-11 28-37 45-77 45C44 4 14-33 15-96c1-61 26-98 85-98zm52 81c6-60-76-77-97-28-3 7-6 17-6 28h103" id="C"/><path d="M206 0h-36l-40-164L89 0H53L-1-190h32L70-26l43-164h34l41 164 42-164h31" id="D"/><path d="M179-190L93 31C79 59 56 82 12 73V49c39 6 53-20 64-50L1-190h34L92-34l54-156h33" id="E"/><path d="M30-248c118-7 216 8 213 122C240-48 200 0 122 0H30v-248zM63-27c89 8 146-16 146-99s-60-101-146-95v194" id="F"/><path d="M108 0H70L1-190h34L89-25l56-165h34" id="G"/><path d="M24-231v-30h32v30H24zM24 0v-190h32V0H24" id="H"/><path d="M96-169c-40 0-48 33-48 73s9 75 48 75c24 0 41-14 43-38l32 2c-6 37-31 61-74 61-59 0-76-41-82-99-10-93 101-131 147-64 4 7 5 14 7 22l-32 3c-4-21-16-35-41-35" id="I"/><path d="M205 0l-28-72H64L36 0H1l101-248h38L239 0h-34zm-38-99l-47-123c-12 45-31 82-46 123h93" id="J"/><path d="M115-194c55 1 70 41 70 98S169 2 115 4C84 4 66-9 55-30l1 105H24l-1-265h31l2 30c10-21 28-34 59-34zm-8 174c40 0 45-34 45-75s-6-73-45-74c-42 0-51 32-51 76 0 43 10 73 51 73" id="K"/><g id="a"><use transform="matrix(0.044444444444444446,0,0,0.044444444444444446,0,0)" xlink:href="#z"/><use transform="matrix(0.044444444444444446,0,0,0.044444444444444446,12.444444444444445,0)" xlink:href="#A"/><use transform="matrix(0.044444444444444446,0,0,0.044444444444444446,21.333333333333336,0)" xlink:href="#B"/><use transform="matrix(0.044444444444444446,0,0,0.044444444444444446,25.77777777777778,0)" xlink:href="#C"/><use transform="matrix(0.044444444444444446,0,0,0.044444444444444446,34.66666666666667,0)" xlink:href="#D"/><use transform="matrix(0.044444444444444446,0,0,0.044444444444444446,46.17777777777778,0)" xlink:href="#A"/><use transform="matrix(0.044444444444444446,0,0,0.044444444444444446,55.06666666666668,0)" xlink:href="#E"/><use transform="matrix(0.044444444444444446,0,0,0.044444444444444446,63.06666666666668,0)" xlink:href="#F"/><use transform="matrix(0.044444444444444446,0,0,0.044444444444444446,74.57777777777778,0)" xlink:href="#C"/><use transform="matrix(0.044444444444444446,0,0,0.044444444444444446,83.46666666666667,0)" xlink:href="#G"/><use transform="matrix(0.044444444444444446,0,0,0.044444444444444446,91.46666666666667,0)" xlink:href="#H"/><use transform="matrix(0.044444444444444446,0,0,0.044444444444444446,94.97777777777777,0)" xlink:href="#I"/><use transform="matrix(0.044444444444444446,0,0,0.044444444444444446,102.97777777777779,0)" xlink:href="#C"/><use transform="matrix(0.044444444444444446,0,0,0.044444444444444446,111.86666666666665,0)" xlink:href="#J"/><use transform="matrix(0.044444444444444446,0,0,0.044444444444444446,122.53333333333333,0)" xlink:href="#K"/><use transform="matrix(0.044444444444444446,0,0,0.044444444444444446,131.42222222222222,0)" xlink:href="#K"/></g><path fill="#333" d="M118-107v75H92v-75H18v-26h74v-75h26v75h74v26h-74" id="L"/><use transform="matrix(0.06172839506172839,0,0,0.06172839506172839,0,0)" xlink:href="#L" id="b"/><path fill="#333" d="M85-194c31 0 48 13 60 33l-1-100h32l1 261h-30c-2-10 0-23-3-31C134-8 116 4 85 4 32 4 16-35 15-94c0-66 23-100 70-100zm9 24c-40 0-46 34-46 75 0 40 6 74 45 74 42 0 51-32 51-76 0-42-9-74-50-73" id="M"/><path fill="#333" d="M100-194c63 0 86 42 84 106H49c0 40 14 67 53 68 26 1 43-12 49-29l28 8c-11 28-37 45-77 45C44 4 14-33 15-96c1-61 26-98 85-98zm52 81c6-60-76-77-97-28-3 7-6 17-6 28h103" id="N"/><path fill="#333" d="M108 0H70L1-190h34L89-25l56-165h34" id="O"/><path fill="#333" d="M30-248c118-7 216 8 213 122C240-48 200 0 122 0H30v-248zM63-27c89 8 146-16 146-99s-60-101-146-95v194" id="P"/><path fill="#333" d="M141-36C126-15 110 5 73 4 37 3 15-17 15-53c-1-64 63-63 125-63 3-35-9-54-41-54-24 1-41 7-42 31l-33-3c5-37 33-52 76-52 45 0 72 20 72 64v82c-1 20 7 32 28 27v20c-31 9-61-2-59-35zM48-53c0 20 12 33 32 33 41-3 63-29 60-74-43 2-92-5-92 41" id="Q"/><path fill="#333" d="M59-47c-2 24 18 29 38 22v24C64 9 27 4 27-40v-127H5v-23h24l9-43h21v43h35v23H59v120" id="R"/><path fill="#333" d="M240 0l2-218c-23 76-54 145-80 218h-23L58-218 59 0H30v-248h44l77 211c21-75 51-140 76-211h43V0h-30" id="S"/><path fill="#333" d="M117-194c89-4 53 116 60 194h-32v-121c0-31-8-49-39-48C34-167 62-67 57 0H25l-1-190h30c1 10-1 24 2 32 11-22 29-35 61-36" id="T"/><path fill="#333" d="M177-190C167-65 218 103 67 71c-23-6-38-20-44-43l32-5c15 47 100 32 89-28v-30C133-14 115 1 83 1 29 1 15-40 15-95c0-56 16-97 71-98 29-1 48 16 59 35 1-10 0-23 2-32h30zM94-22c36 0 50-32 50-73 0-42-14-75-50-75-39 0-46 34-46 75s6 73 46 73" id="U"/><path fill="#333" d="M114-163C36-179 61-72 57 0H25l-1-190h30c1 12-1 29 2 39 6-27 23-49 58-41v29" id="V"/><g id="c"><use transform="matrix(0.06172839506172839,0,0,0.06172839506172839,0,0)" xlink:href="#M"/><use transform="matrix(0.06172839506172839,0,0,0.06172839506172839,12.345679012345679,0)" xlink:href="#N"/><use transform="matrix(0.06172839506172839,0,0,0.06172839506172839,24.691358024691358,0)" xlink:href="#O"/><use transform="matrix(0.06172839506172839,0,0,0.06172839506172839,35.80246913580247,0)" xlink:href="#P"/><use transform="matrix(0.06172839506172839,0,0,0.06172839506172839,51.79012345679012,0)" xlink:href="#Q"/><use transform="matrix(0.06172839506172839,0,0,0.06172839506172839,64.1358024691358,0)" xlink:href="#R"/><use transform="matrix(0.06172839506172839,0,0,0.06172839506172839,70.30864197530863,0)" xlink:href="#Q"/><use transform="matrix(0.06172839506172839,0,0,0.06172839506172839,82.65432098765432,0)" xlink:href="#S"/><use transform="matrix(0.06172839506172839,0,0,0.06172839506172839,101.1111111111111,0)" xlink:href="#Q"/><use transform="matrix(0.06172839506172839,0,0,0.06172839506172839,113.45679012345678,0)" xlink:href="#T"/><use transform="matrix(0.06172839506172839,0,0,0.06172839506172839,125.80246913580247,0)" xlink:href="#Q"/><use transform="matrix(0.06172839506172839,0,0,0.06172839506172839,138.14814814814815,0)" xlink:href="#U"/><use transform="matrix(0.06172839506172839,0,0,0.06172839506172839,150.49382716049382,0)" xlink:href="#N"/><use transform="matrix(0.06172839506172839,0,0,0.06172839506172839,162.8395061728395,0)" xlink:href="#V"/></g><path fill="#333" d="M135-143c-3-34-86-38-87 0 15 53 115 12 119 90S17 21 10-45l28-5c4 36 97 45 98 0-10-56-113-15-118-90-4-57 82-63 122-42 12 7 21 19 24 35" id="W"/><path fill="#333" d="M205 0l-28-72H64L36 0H1l101-248h38L239 0h-34zm-38-99l-47-123c-12 45-31 82-46 123h93" id="X"/><path fill="#333" d="M115-194c55 1 70 41 70 98S169 2 115 4C84 4 66-9 55-30l1 105H24l-1-265h31l2 30c10-21 28-34 59-34zm-8 174c40 0 45-34 45-75s-6-73-45-74c-42 0-51 32-51 76 0 43 10 73 51 73" id="Y"/><path fill="#333" d="M87 75C49 33 22-17 22-94c0-76 28-126 65-167h31c-38 41-64 92-64 168S80 34 118 75H87" id="Z"/><path fill="#333" d="M33-261c38 41 65 92 65 168S71 34 33 75H2C39 34 66-17 66-93S39-220 2-261h31" id="aa"/><g id="d"><use transform="matrix(0.06172839506172839,0,0,0.06172839506172839,0,0)" xlink:href="#W"/><use transform="matrix(0.06172839506172839,0,0,0.06172839506172839,11.11111111111111,0)" xlink:href="#R"/><use transform="matrix(0.06172839506172839,0,0,0.06172839506172839,17.28395061728395,0)" xlink:href="#Q"/><use transform="matrix(0.06172839506172839,0,0,0.06172839506172839,29.629629629629626,0)" xlink:href="#V"/><use transform="matrix(0.06172839506172839,0,0,0.06172839506172839,36.9753086419753,0)" xlink:href="#R"/><use transform="matrix(0.06172839506172839,0,0,0.06172839506172839,43.148148148148145,0)" xlink:href="#X"/><use transform="matrix(0.06172839506172839,0,0,0.06172839506172839,57.96296296296296,0)" xlink:href="#Y"/><use transform="matrix(0.06172839506172839,0,0,0.06172839506172839,70.30864197530865,0)" xlink:href="#Y"/><use transform="matrix(0.06172839506172839,0,0,0.06172839506172839,82.65432098765433,0)" xlink:href="#Z"/><use transform="matrix(0.06172839506172839,0,0,0.06172839506172839,90.00000000000001,0)" xlink:href="#aa"/></g><path fill="#333" d="M100-194c62-1 85 37 85 99 1 63-27 99-86 99S16-35 15-95c0-66 28-99 85-99zM99-20c44 1 53-31 53-75 0-43-8-75-51-75s-53 32-53 75 10 74 51 75" id="ab"/><path fill="#333" d="M24-231v-30h32v30H24zM24 0v-190h32V0H24" id="ac"/><g id="e"><use transform="matrix(0.06172839506172839,0,0,0.06172839506172839,0,0)" xlink:href="#W"/><use transform="matrix(0.06172839506172839,0,0,0.06172839506172839,11.11111111111111,0)" xlink:href="#R"/><use transform="matrix(0.06172839506172839,0,0,0.06172839506172839,17.28395061728395,0)" xlink:href="#ab"/><use transform="matrix(0.06172839506172839,0,0,0.06172839506172839,29.629629629629626,0)" xlink:href="#Y"/><use transform="matrix(0.06172839506172839,0,0,0.06172839506172839,41.9753086419753,0)" xlink:href="#X"/><use transform="matrix(0.06172839506172839,0,0,0.06172839506172839,56.79012345679011,0)" xlink:href="#Y"/><use transform="matrix(0.06172839506172839,0,0,0.06172839506172839,69.1358024691358,0)" xlink:href="#Y"/><use transform="matrix(0.06172839506172839,0,0,0.06172839506172839,81.48148148148148,0)" xlink:href="#Z"/><use transform="matrix(0.06172839506172839,0,0,0.06172839506172839,88.82716049382717,0)" xlink:href="#ac"/><use transform="matrix(0.06172839506172839,0,0,0.06172839506172839,93.70370370370371,0)" xlink:href="#T"/><use transform="matrix(0.06172839506172839,0,0,0.06172839506172839,106.0493827160494,0)" xlink:href="#R"/></g><path fill="#333" d="M96-169c-40 0-48 33-48 73s9 75 48 75c24 0 41-14 43-38l32 2c-6 37-31 61-74 61-59 0-76-41-82-99-10-93 101-131 147-64 4 7 5 14 7 22l-32 3c-4-21-16-35-41-35" id="ad"/><g id="f"><use transform="matrix(0.06172839506172839,0,0,0.06172839506172839,0,0)" xlink:href="#ad"/><use transform="matrix(0.06172839506172839,0,0,0.06172839506172839,11.11111111111111,0)" xlink:href="#ab"/><use transform="matrix(0.06172839506172839,0,0,0.06172839506172839,23.45679012345679,0)" xlink:href="#M"/><use transform="matrix(0.06172839506172839,0,0,0.06172839506172839,35.80246913580247,0)" xlink:href="#N"/><use transform="matrix(0.06172839506172839,0,0,0.06172839506172839,48.148148148148145,0)" xlink:href="#aa"/></g><g id="g"><use transform="matrix(0.06172839506172839,0,0,0.06172839506172839,0,0)" xlink:href="#Y"/><use transform="matrix(0.06172839506172839,0,0,0.06172839506172839,12.345679012345679,0)" xlink:href="#Q"/><use transform="matrix(0.06172839506172839,0,0,0.06172839506172839,24.691358024691358,0)" xlink:href="#V"/><use transform="matrix(0.06172839506172839,0,0,0.06172839506172839,32.03703703703704,0)" xlink:href="#W"/><use transform="matrix(0.06172839506172839,0,0,0.06172839506172839,43.14814814814815,0)" xlink:href="#N"/><use transform="matrix(0.06172839506172839,0,0,0.06172839506172839,55.49382716049383,0)" xlink:href="#X"/><use transform="matrix(0.06172839506172839,0,0,0.06172839506172839,70.30864197530865,0)" xlink:href="#V"/><use transform="matrix(0.06172839506172839,0,0,0.06172839506172839,77.65432098765433,0)" xlink:href="#U"/><use transform="matrix(0.06172839506172839,0,0,0.06172839506172839,90.00000000000001,0)" xlink:href="#W"/><use transform="matrix(0.06172839506172839,0,0,0.06172839506172839,101.11111111111113,0)" xlink:href="#Z"/><use transform="matrix(0.06172839506172839,0,0,0.06172839506172839,108.45679012345681,0)" xlink:href="#aa"/></g><path d="M169-182c-1-43-94-46-97-3 18 66 151 10 154 114 3 95-165 93-204 36-6-8-10-19-12-30l50-8c3 46 112 56 116 5-17-69-150-10-154-114-4-87 153-88 188-35 5 8 8 18 10 28" id="ae"/><path d="M123 10C108 53 80 86 19 72V37c35 8 53-11 59-39L3-190h52l48 148c12-52 28-100 44-148h51" id="af"/><path d="M137-138c1-29-70-34-71-4 15 46 118 7 119 86 1 83-164 76-172 9l43-7c4 19 20 25 44 25 33 8 57-30 24-41C81-84 22-81 20-136c-2-80 154-74 161-7" id="ag"/><path d="M115-3C79 11 28 4 28-45v-112H4v-33h27l15-45h31v45h36v33H77v99c-1 23 16 31 38 25v30" id="ah"/><path d="M185-48c-13 30-37 53-82 52C43 2 14-33 14-96s30-98 90-98c62 0 83 45 84 108H66c0 31 8 55 39 56 18 0 30-7 34-22zm-45-69c5-46-57-63-70-21-2 6-4 13-4 21h74" id="ai"/><path d="M220-157c-53 9-28 100-34 157h-49v-107c1-27-5-49-29-50C55-147 81-57 75 0H25l-1-190h47c2 12-1 28 3 38 10-53 101-56 108 0 13-22 24-43 59-42 82 1 51 116 57 194h-49v-107c-1-25-5-48-29-50" id="aj"/><path d="M24-248c93 1 206-16 204 79-1 75-69 88-152 82V0H24v-248zm52 121c47 0 100 7 100-41 0-47-54-39-100-39v80" id="ak"/><path d="M135-150c-39-12-60 13-60 57V0H25l-1-190h47c2 13-1 29 3 40 6-28 27-53 61-41v41" id="al"/><path d="M121-226c-27-7-43 5-38 36h38v33H83V0H34v-157H6v-33h28c-9-59 32-81 87-68v32" id="am"/><path d="M110-194c64 0 96 36 96 99 0 64-35 99-97 99-61 0-95-36-95-99 0-62 34-99 96-99zm-1 164c35 0 45-28 45-65 0-40-10-65-43-65-34 0-45 26-45 65 0 36 10 65 43 65" id="an"/><path d="M133-34C117-15 103 5 69 4 32 3 11-16 11-54c-1-60 55-63 116-61 1-26-3-47-28-47-18 1-26 9-28 27l-52-2c7-38 36-58 82-57s74 22 75 68l1 82c-1 14 12 18 25 15v27c-30 8-71 5-69-32zm-48 3c29 0 43-24 42-57-32 0-66-3-65 30 0 17 8 27 23 27" id="ao"/><path d="M135-194c87-1 58 113 63 194h-50c-7-57 23-157-34-157-59 0-34 97-39 157H25l-1-190h47c2 12-1 28 3 38 12-26 28-41 61-42" id="ap"/><path d="M190-63c-7 42-38 67-86 67-59 0-84-38-90-98-12-110 154-137 174-36l-49 2c-2-19-15-32-35-32-30 0-35 28-38 64-6 74 65 87 74 30" id="aq"/><path d="M230 0l2-204L168 0h-37L68-204 70 0H24v-248h70l56 185 57-185h69V0h-46" id="ar"/><path d="M195-6C206 82 75 100 31 46c-4-6-6-13-8-21l49-6c3 16 16 24 34 25 40 0 42-37 40-79-11 22-30 35-61 35-53 0-70-43-70-97 0-56 18-96 73-97 30 0 46 14 59 34l2-30h47zm-90-29c32 0 41-27 41-63 0-35-9-62-40-62-32 0-39 29-40 63 0 36 9 62 39 62" id="as"/><g id="h"><use transform="matrix(0.044444444444444446,0,0,0.044444444444444446,0,0)" xlink:href="#ae"/><use transform="matrix(0.044444444444444446,0,0,0.044444444444444446,10.666666666666668,0)" xlink:href="#af"/><use transform="matrix(0.044444444444444446,0,0,0.044444444444444446,19.555555555555557,0)" xlink:href="#ag"/><use transform="matrix(0.044444444444444446,0,0,0.044444444444444446,28.444444444444446,0)" xlink:href="#ah"/><use transform="matrix(0.044444444444444446,0,0,0.044444444444444446,33.733333333333334,0)" xlink:href="#ai"/><use transform="matrix(0.044444444444444446,0,0,0.044444444444444446,42.62222222222222,0)" xlink:href="#aj"/><use transform="matrix(0.044444444444444446,0,0,0.044444444444444446,56.844444444444434,0)" xlink:href="#ak"/><use transform="matrix(0.044444444444444446,0,0,0.044444444444444446,67.5111111111111,0)" xlink:href="#ai"/><use transform="matrix(0.044444444444444446,0,0,0.044444444444444446,76.39999999999999,0)" xlink:href="#al"/><use transform="matrix(0.044444444444444446,0,0,0.044444444444444446,82.62222222222222,0)" xlink:href="#am"/><use transform="matrix(0.044444444444444446,0,0,0.044444444444444446,87.91111111111111,0)" xlink:href="#an"/><use transform="matrix(0.044444444444444446,0,0,0.044444444444444446,97.64444444444445,0)" xlink:href="#al"/><use transform="matrix(0.044444444444444446,0,0,0.044444444444444446,103.86666666666667,0)" xlink:href="#aj"/><use transform="matrix(0.044444444444444446,0,0,0.044444444444444446,118.08888888888889,0)" xlink:href="#ao"/><use transform="matrix(0.044444444444444446,0,0,0.044444444444444446,126.97777777777779,0)" xlink:href="#ap"/><use transform="matrix(0.044444444444444446,0,0,0.044444444444444446,136.7111111111111,0)" xlink:href="#aq"/><use transform="matrix(0.044444444444444446,0,0,0.044444444444444446,145.6,0)" xlink:href="#ai"/><use transform="matrix(0.044444444444444446,0,0,0.044444444444444446,154.48888888888888,0)" xlink:href="#ar"/><use transform="matrix(0.044444444444444446,0,0,0.044444444444444446,167.77777777777777,0)" xlink:href="#ao"/><use transform="matrix(0.044444444444444446,0,0,0.044444444444444446,176.66666666666666,0)" xlink:href="#ap"/><use transform="matrix(0.044444444444444446,0,0,0.044444444444444446,186.39999999999998,0)" xlink:href="#ao"/><use transform="matrix(0.044444444444444446,0,0,0.044444444444444446,195.28888888888886,0)" xlink:href="#as"/><use transform="matrix(0.044444444444444446,0,0,0.044444444444444446,205.02222222222218,0)" xlink:href="#ai"/><use transform="matrix(0.044444444444444446,0,0,0.044444444444444446,213.91111111111107,0)" xlink:href="#al"/></g><path d="M84 4C-5 8 30-112 23-190h32v120c0 31 7 50 39 49 72-2 45-101 50-169h31l1 190h-30c-1-10 1-25-2-33-11 22-28 36-60 37" id="at"/><path d="M232-93c-1 65-40 97-104 97C67 4 28-28 28-90v-158h33c8 89-33 224 67 224 102 0 64-133 71-224h33v155" id="au"/><path d="M24 0v-261h32V0H24" id="av"/><path d="M127-220V0H93v-220H8v-28h204v28h-85" id="aw"/><path d="M135-143c-3-34-86-38-87 0 15 53 115 12 119 90S17 21 10-45l28-5c4 36 97 45 98 0-10-56-113-15-118-90-4-57 82-63 122-42 12 7 21 19 24 35" id="ax"/><path d="M143 0L79-87 56-68V0H24v-261h32v163l83-92h37l-77 82L181 0h-38" id="ay"/><g id="i"><use transform="matrix(0.06172839506172839,0,0,0.06172839506172839,0,0)" xlink:href="#L"/><use transform="matrix(0.044444444444444446,0,0,0.044444444444444446,12.962962962962962,0)" xlink:href="#I"/><use transform="matrix(0.044444444444444446,0,0,0.044444444444444446,20.962962962962962,0)" xlink:href="#K"/><use transform="matrix(0.044444444444444446,0,0,0.044444444444444446,29.85185185185185,0)" xlink:href="#at"/><use transform="matrix(0.044444444444444446,0,0,0.044444444444444446,38.74074074074074,0)" xlink:href="#au"/><use transform="matrix(0.044444444444444446,0,0,0.044444444444444446,50.25185185185186,0)" xlink:href="#B"/><use transform="matrix(0.044444444444444446,0,0,0.044444444444444446,54.69629629629629,0)" xlink:href="#H"/><use transform="matrix(0.044444444444444446,0,0,0.044444444444444446,58.207407407407416,0)" xlink:href="#av"/><use transform="matrix(0.044444444444444446,0,0,0.044444444444444446,61.71851851851852,0)" xlink:href="#aw"/><use transform="matrix(0.044444444444444446,0,0,0.044444444444444446,69.67407407407407,0)" xlink:href="#A"/><use transform="matrix(0.044444444444444446,0,0,0.044444444444444446,78.56296296296296,0)" xlink:href="#ax"/><use transform="matrix(0.044444444444444446,0,0,0.044444444444444446,86.56296296296296,0)" xlink:href="#ay"/></g><path d="M118-107v75H92v-75H18v-26h74v-75h26v75h74v26h-74" id="az"/><path d="M210-169c-67 3-38 105-44 169h-31v-121c0-29-5-50-35-48C34-165 62-65 56 0H25l-1-190h30c1 10-1 24 2 32 10-44 99-50 107 0 11-21 27-35 58-36 85-2 47 119 55 194h-31v-121c0-29-5-49-35-48" id="aA"/><g id="j"><use transform="matrix(0.044444444444444446,0,0,0.044444444444444446,0,0)" xlink:href="#az"/><use transform="matrix(0.044444444444444446,0,0,0.044444444444444446,9.333333333333334,0)" xlink:href="#aA"/><use transform="matrix(0.044444444444444446,0,0,0.044444444444444446,22.622222222222224,0)" xlink:href="#C"/><use transform="matrix(0.044444444444444446,0,0,0.044444444444444446,31.511111111111113,0)" xlink:href="#aA"/><use transform="matrix(0.044444444444444446,0,0,0.044444444444444446,44.800000000000004,0)" xlink:href="#au"/><use transform="matrix(0.044444444444444446,0,0,0.044444444444444446,56.31111111111111,0)" xlink:href="#B"/><use transform="matrix(0.044444444444444446,0,0,0.044444444444444446,60.75555555555556,0)" xlink:href="#H"/><use transform="matrix(0.044444444444444446,0,0,0.044444444444444446,64.26666666666667,0)" xlink:href="#av"/><use transform="matrix(0.044444444444444446,0,0,0.044444444444444446,67.77777777777777,0)" xlink:href="#aw"/><use transform="matrix(0.044444444444444446,0,0,0.044444444444444446,75.73333333333333,0)" xlink:href="#A"/><use transform="matrix(0.044444444444444446,0,0,0.044444444444444446,84.62222222222222,0)" xlink:href="#ax"/><use transform="matrix(0.044444444444444446,0,0,0.044444444444444446,92.62222222222222,0)" xlink:href="#ay"/></g><path d="M106-169C34-169 62-67 57 0H25v-261h32l-1 103c12-21 28-36 61-36 89 0 53 116 60 194h-32v-121c2-32-8-49-39-48" id="aB"/><path d="M85-194c31 0 48 13 60 33l-1-100h32l1 261h-30c-2-10 0-23-3-31C134-8 116 4 85 4 32 4 16-35 15-94c0-66 23-100 70-100zm9 24c-40 0-46 34-46 75 0 40 6 74 45 74 42 0 51-32 51-76 0-42-9-74-50-73" id="aC"/><path d="M114-163C36-179 61-72 57 0H25l-1-190h30c1 12-1 29 2 39 6-27 23-49 58-41v29" id="aD"/><g id="k"><use transform="matrix(0.044444444444444446,0,0,0.044444444444444446,0,0)" xlink:href="#az"/><use transform="matrix(0.044444444444444446,0,0,0.044444444444444446,9.333333333333334,0)" xlink:href="#ax"/><use transform="matrix(0.044444444444444446,0,0,0.044444444444444446,17.333333333333336,0)" xlink:href="#I"/><use transform="matrix(0.044444444444444446,0,0,0.044444444444444446,25.333333333333336,0)" xlink:href="#aB"/><use transform="matrix(0.044444444444444446,0,0,0.044444444444444446,34.22222222222223,0)" xlink:href="#C"/><use transform="matrix(0.044444444444444446,0,0,0.044444444444444446,43.111111111111114,0)" xlink:href="#aC"/><use transform="matrix(0.044444444444444446,0,0,0.044444444444444446,52,0)" xlink:href="#at"/><use transform="matrix(0.044444444444444446,0,0,0.044444444444444446,60.88888888888888,0)" xlink:href="#av"/><use transform="matrix(0.044444444444444446,0,0,0.044444444444444446,64.39999999999999,0)" xlink:href="#C"/><use transform="matrix(0.044444444444444446,0,0,0.044444444444444446,73.28888888888888,0)" xlink:href="#aD"/></g><path d="M114-157C55-157 80-60 75 0H25v-261h50l-1 109c12-26 28-41 61-42 86-1 58 113 63 194h-50c-7-57 23-157-34-157" id="aE"/><path d="M88-194c31-1 46 15 58 34l-1-101h50l1 261h-48c-2-10 0-23-3-31C134-8 116 4 84 4 32 4 16-41 15-95c0-56 19-97 73-99zm17 164c33 0 40-30 41-66 1-37-9-64-41-64s-38 30-39 65c0 43 13 65 39 65" id="aF"/><path d="M25 0v-261h50V0H25" id="aG"/><path d="M136-208V0H84v-208H4v-40h212v40h-80" id="aH"/><path d="M67-93c0 74 22 123 53 168H70C40 30 18-18 18-93s22-123 52-168h50c-32 44-53 94-53 168" id="aI"/><path d="M102-93c0 74-22 123-52 168H0C30 29 54-18 53-93c0-74-22-123-53-168h50c30 45 52 94 52 168" id="aJ"/><g id="l"><use transform="matrix(0.06172839506172839,0,0,0.06172839506172839,0,0)" xlink:href="#L"/><use transform="matrix(0.044444444444444446,0,0,0.044444444444444446,12.962962962962962,0)" xlink:href="#aE"/><use transform="matrix(0.044444444444444446,0,0,0.044444444444444446,22.696296296296296,0)" xlink:href="#ao"/><use transform="matrix(0.044444444444444446,0,0,0.044444444444444446,31.585185185185185,0)" xlink:href="#ap"/><use transform="matrix(0.044444444444444446,0,0,0.044444444444444446,41.318518518518516,0)" xlink:href="#aF"/><use transform="matrix(0.044444444444444446,0,0,0.044444444444444446,51.05185185185185,0)" xlink:href="#aG"/><use transform="matrix(0.044444444444444446,0,0,0.044444444444444446,55.49629629629629,0)" xlink:href="#ai"/><use transform="matrix(0.044444444444444446,0,0,0.044444444444444446,64.38518518518518,0)" xlink:href="#aH"/><use transform="matrix(0.044444444444444446,0,0,0.044444444444444446,72.91851851851851,0)" xlink:href="#ai"/><use transform="matrix(0.044444444444444446,0,0,0.044444444444444446,81.8074074074074,0)" xlink:href="#aG"/><use transform="matrix(0.044444444444444446,0,0,0.044444444444444446,86.25185185185184,0)" xlink:href="#ai"/><use transform="matrix(0.044444444444444446,0,0,0.044444444444444446,95.14074074074071,0)" xlink:href="#aj"/><use transform="matrix(0.044444444444444446,0,0,0.044444444444444446,109.36296296296295,0)" xlink:href="#ai"/><use transform="matrix(0.044444444444444446,0,0,0.044444444444444446,118.25185185185182,0)" xlink:href="#ah"/><use transform="matrix(0.044444444444444446,0,0,0.044444444444444446,123.54074074074074,0)" xlink:href="#al"/><use transform="matrix(0.044444444444444446,0,0,0.044444444444444446,129.76296296296294,0)" xlink:href="#af"/><use transform="matrix(0.044444444444444446,0,0,0.044444444444444446,138.65185185185183,0)" xlink:href="#aI"/><use transform="matrix(0.044444444444444446,0,0,0.044444444444444446,143.94074074074072,0)" xlink:href="#aJ"/></g><path d="M125-100v72H85v-72H15v-39h70v-72h40v72h71v39h-71" id="aK"/><g id="m"><use transform="matrix(0.044444444444444446,0,0,0.044444444444444446,0,0)" xlink:href="#aK"/><use transform="matrix(0.044444444444444446,0,0,0.044444444444444446,9.333333333333334,0)" xlink:href="#ag"/><use transform="matrix(0.044444444444444446,0,0,0.044444444444444446,18.22222222222222,0)" xlink:href="#ah"/><use transform="matrix(0.044444444444444446,0,0,0.044444444444444446,23.511111111111106,0)" xlink:href="#ao"/><use transform="matrix(0.044444444444444446,0,0,0.044444444444444446,32.4,0)" xlink:href="#al"/><use transform="matrix(0.044444444444444446,0,0,0.044444444444444446,38.62222222222222,0)" xlink:href="#ah"/><use transform="matrix(0.044444444444444446,0,0,0.044444444444444446,43.91111111111111,0)" xlink:href="#ar"/><use transform="matrix(0.044444444444444446,0,0,0.044444444444444446,57.2,0)" xlink:href="#ao"/><use transform="matrix(0.044444444444444446,0,0,0.044444444444444446,66.08888888888889,0)" xlink:href="#ap"/><use transform="matrix(0.044444444444444446,0,0,0.044444444444444446,75.82222222222222,0)" xlink:href="#ao"/><use transform="matrix(0.044444444444444446,0,0,0.044444444444444446,84.71111111111111,0)" xlink:href="#as"/><use transform="matrix(0.044444444444444446,0,0,0.044444444444444446,94.44444444444444,0)" xlink:href="#ai"/><use transform="matrix(0.044444444444444446,0,0,0.044444444444444446,103.33333333333334,0)" xlink:href="#al"/><use transform="matrix(0.044444444444444446,0,0,0.044444444444444446,109.55555555555556,0)" xlink:href="#aI"/><use transform="matrix(0.044444444444444446,0,0,0.044444444444444446,114.84444444444445,0)" xlink:href="#aJ"/></g><path d="M135-194c53 0 70 44 70 98 0 56-19 98-73 100-31 1-45-17-59-34 3 33 2 69 2 105H25l-1-265h48c2 10 0 23 3 31 11-24 29-35 60-35zM114-30c33 0 39-31 40-66 0-38-9-64-40-64-56 0-55 130 0 130" id="aL"/><g id="n"><use transform="matrix(0.044444444444444446,0,0,0.044444444444444446,0,0)" xlink:href="#aK"/><use transform="matrix(0.044444444444444446,0,0,0.044444444444444446,9.333333333333334,0)" xlink:href="#ag"/><use transform="matrix(0.044444444444444446,0,0,0.044444444444444446,18.22222222222222,0)" xlink:href="#ah"/><use transform="matrix(0.044444444444444446,0,0,0.044444444444444446,23.511111111111106,0)" xlink:href="#an"/><use transform="matrix(0.044444444444444446,0,0,0.044444444444444446,33.24444444444444,0)" xlink:href="#aL"/><use transform="matrix(0.044444444444444446,0,0,0.044444444444444446,42.977777777777774,0)" xlink:href="#ar"/><use transform="matrix(0.044444444444444446,0,0,0.044444444444444446,56.266666666666666,0)" xlink:href="#ao"/><use transform="matrix(0.044444444444444446,0,0,0.044444444444444446,65.15555555555555,0)" xlink:href="#ap"/><use transform="matrix(0.044444444444444446,0,0,0.044444444444444446,74.88888888888889,0)" xlink:href="#ao"/><use transform="matrix(0.044444444444444446,0,0,0.044444444444444446,83.77777777777777,0)" xlink:href="#as"/><use transform="matrix(0.044444444444444446,0,0,0.044444444444444446,93.51111111111112,0)" xlink:href="#ai"/><use transform="matrix(0.044444444444444446,0,0,0.044444444444444446,102.39999999999998,0)" xlink:href="#al"/><use transform="matrix(0.044444444444444446,0,0,0.044444444444444446,108.62222222222222,0)" xlink:href="#aI"/><use transform="matrix(0.044444444444444446,0,0,0.044444444444444446,113.91111111111111,0)" xlink:href="#aJ"/></g><path d="M67-125c0 53 21 87 73 88 37 1 54-22 65-47l45 17C233-25 199 4 140 4 58 4 20-42 15-125 8-235 124-281 211-232c18 10 29 29 36 50l-46 12c-8-25-30-41-62-41-52 0-71 34-72 86" id="aM"/><path d="M85 4C-2 5 27-109 22-190h50c7 57-23 150 33 157 60-5 35-97 40-157h50l1 190h-47c-2-12 1-28-3-38-12 25-28 42-61 42" id="aN"/><path d="M238-95c0 69-44 99-111 99C63 4 22-25 22-93v-155h51v151c-1 38 19 59 55 60 90 1 49-130 58-211h52v153" id="aO"/><path d="M25-224v-37h50v37H25zM25 0v-190h50V0H25" id="aP"/><path d="M147 0L96-86 75-71V0H25v-261h50v150l67-79h53l-66 74L201 0h-54" id="aQ"/><g id="p"><use transform="matrix(0.044444444444444446,0,0,0.044444444444444446,0,0)" xlink:href="#ae"/><use transform="matrix(0.044444444444444446,0,0,0.044444444444444446,10.666666666666668,0)" xlink:href="#af"/><use transform="matrix(0.044444444444444446,0,0,0.044444444444444446,19.555555555555557,0)" xlink:href="#ag"/><use transform="matrix(0.044444444444444446,0,0,0.044444444444444446,28.444444444444446,0)" xlink:href="#ah"/><use transform="matrix(0.044444444444444446,0,0,0.044444444444444446,33.733333333333334,0)" xlink:href="#ai"/><use transform="matrix(0.044444444444444446,0,0,0.044444444444444446,42.62222222222222,0)" xlink:href="#aj"/><use transform="matrix(0.044444444444444446,0,0,0.044444444444444446,56.844444444444434,0)" xlink:href="#aM"/><use transform="matrix(0.044444444444444446,0,0,0.044444444444444446,68.35555555555555,0)" xlink:href="#aL"/><use transform="matrix(0.044444444444444446,0,0,0.044444444444444446,78.08888888888889,0)" xlink:href="#aN"/><use transform="matrix(0.044444444444444446,0,0,0.044444444444444446,87.82222222222222,0)" xlink:href="#aO"/><use transform="matrix(0.044444444444444446,0,0,0.044444444444444446,99.33333333333334,0)" xlink:href="#ah"/><use transform="matrix(0.044444444444444446,0,0,0.044444444444444446,104.62222222222222,0)" xlink:href="#aP"/><use transform="matrix(0.044444444444444446,0,0,0.044444444444444446,109.06666666666668,0)" xlink:href="#aG"/><use transform="matrix(0.044444444444444446,0,0,0.044444444444444446,113.51111111111112,0)" xlink:href="#aH"/><use transform="matrix(0.044444444444444446,0,0,0.044444444444444446,122.04444444444442,0)" xlink:href="#ao"/><use transform="matrix(0.044444444444444446,0,0,0.044444444444444446,130.93333333333334,0)" xlink:href="#ag"/><use transform="matrix(0.044444444444444446,0,0,0.044444444444444446,139.82222222222222,0)" xlink:href="#aQ"/></g><path d="M177-190C167-65 218 103 67 71c-23-6-38-20-44-43l32-5c15 47 100 32 89-28v-30C133-14 115 1 83 1 29 1 15-40 15-95c0-56 16-97 71-98 29-1 48 16 59 35 1-10 0-23 2-32h30zM94-22c36 0 50-32 50-73 0-42-14-75-50-75-39 0-46 34-46 75s6 73 46 73" id="aR"/><g id="q"><use transform="matrix(0.044444444444444446,0,0,0.044444444444444446,0,0)" xlink:href="#az"/><use transform="matrix(0.044444444444444446,0,0,0.044444444444444446,9.333333333333334,0)" xlink:href="#aR"/><use transform="matrix(0.044444444444444446,0,0,0.044444444444444446,18.22222222222222,0)" xlink:href="#ai"/><use transform="matrix(0.044444444444444446,0,0,0.044444444444444446,27.11111111111111,0)" xlink:href="#ah"/><use transform="matrix(0.044444444444444446,0,0,0.044444444444444446,32.4,0)" xlink:href="#ae"/><use transform="matrix(0.044444444444444446,0,0,0.044444444444444446,43.06666666666666,0)" xlink:href="#af"/><use transform="matrix(0.044444444444444446,0,0,0.044444444444444446,51.95555555555555,0)" xlink:href="#ag"/><use transform="matrix(0.044444444444444446,0,0,0.044444444444444446,60.844444444444434,0)" xlink:href="#ah"/><use transform="matrix(0.044444444444444446,0,0,0.044444444444444446,66.13333333333333,0)" xlink:href="#ai"/><use transform="matrix(0.044444444444444446,0,0,0.044444444444444446,75.02222222222221,0)" xlink:href="#aj"/><use transform="matrix(0.044444444444444446,0,0,0.044444444444444446,89.24444444444444,0)" xlink:href="#aO"/><use transform="matrix(0.044444444444444446,0,0,0.044444444444444446,100.75555555555555,0)" xlink:href="#ah"/><use transform="matrix(0.044444444444444446,0,0,0.044444444444444446,106.04444444444442,0)" xlink:href="#aP"/><use transform="matrix(0.044444444444444446,0,0,0.044444444444444446,110.48888888888887,0)" xlink:href="#aG"/><use transform="matrix(0.044444444444444446,0,0,0.044444444444444446,114.93333333333332,0)" xlink:href="#aI"/><use transform="matrix(0.044444444444444446,0,0,0.044444444444444446,120.2222222222222,0)" xlink:href="#aJ"/></g><g id="r"><use transform="matrix(0.044444444444444446,0,0,0.044444444444444446,0,0)" xlink:href="#ae"/><use transform="matrix(0.044444444444444446,0,0,0.044444444444444446,10.666666666666668,0)" xlink:href="#af"/><use transform="matrix(0.044444444444444446,0,0,0.044444444444444446,19.555555555555557,0)" xlink:href="#ag"/><use transform="matrix(0.044444444444444446,0,0,0.044444444444444446,28.444444444444446,0)" xlink:href="#ah"/><use transform="matrix(0.044444444444444446,0,0,0.044444444444444446,33.733333333333334,0)" xlink:href="#ai"/><use transform="matrix(0.044444444444444446,0,0,0.044444444444444446,42.62222222222222,0)" xlink:href="#aj"/><use transform="matrix(0.044444444444444446,0,0,0.044444444444444446,56.844444444444434,0)" xlink:href="#ar"/><use transform="matrix(0.044444444444444446,0,0,0.044444444444444446,70.13333333333333,0)" xlink:href="#ai"/><use transform="matrix(0.044444444444444446,0,0,0.044444444444444446,79.02222222222221,0)" xlink:href="#aj"/><use transform="matrix(0.044444444444444446,0,0,0.044444444444444446,93.24444444444445,0)" xlink:href="#aO"/><use transform="matrix(0.044444444444444446,0,0,0.044444444444444446,104.75555555555555,0)" xlink:href="#ah"/><use transform="matrix(0.044444444444444446,0,0,0.044444444444444446,110.04444444444442,0)" xlink:href="#aP"/><use transform="matrix(0.044444444444444446,0,0,0.044444444444444446,114.48888888888888,0)" xlink:href="#aG"/><use transform="matrix(0.044444444444444446,0,0,0.044444444444444446,118.93333333333332,0)" xlink:href="#aH"/><use transform="matrix(0.044444444444444446,0,0,0.044444444444444446,127.46666666666665,0)" xlink:href="#ao"/><use transform="matrix(0.044444444444444446,0,0,0.044444444444444446,136.35555555555555,0)" xlink:href="#ag"/></g><use transform="matrix(0.06172839506172839,0,0,0.06172839506172839,0,0)" xlink:href="#L" id="s"/><g id="t"><use transform="matrix(0.044444444444444446,0,0,0.044444444444444446,0,0)" xlink:href="#as"/><use transform="matrix(0.044444444444444446,0,0,0.044444444444444446,9.733333333333334,0)" xlink:href="#ai"/><use transform="matrix(0.044444444444444446,0,0,0.044444444444444446,18.622222222222224,0)" xlink:href="#ah"/><use transform="matrix(0.044444444444444446,0,0,0.044444444444444446,23.91111111111111,0)" xlink:href="#ae"/><use transform="matrix(0.044444444444444446,0,0,0.044444444444444446,34.57777777777778,0)" xlink:href="#af"/><use transform="matrix(0.044444444444444446,0,0,0.044444444444444446,43.46666666666667,0)" xlink:href="#ag"/><use transform="matrix(0.044444444444444446,0,0,0.044444444444444446,52.355555555555554,0)" xlink:href="#ah"/><use transform="matrix(0.044444444444444446,0,0,0.044444444444444446,57.644444444444446,0)" xlink:href="#ai"/><use transform="matrix(0.044444444444444446,0,0,0.044444444444444446,66.53333333333333,0)" xlink:href="#aj"/><use transform="matrix(0.044444444444444446,0,0,0.044444444444444446,80.75555555555556,0)" xlink:href="#aO"/><use transform="matrix(0.044444444444444446,0,0,0.044444444444444446,92.26666666666667,0)" xlink:href="#ah"/><use transform="matrix(0.044444444444444446,0,0,0.044444444444444446,97.55555555555556,0)" xlink:href="#aP"/><use transform="matrix(0.044444444444444446,0,0,0.044444444444444446,102,0)" xlink:href="#aG"/><use transform="matrix(0.044444444444444446,0,0,0.044444444444444446,106.44444444444444,0)" xlink:href="#aI"/><use transform="matrix(0.044444444444444446,0,0,0.044444444444444446,111.73333333333333,0)" xlink:href="#aJ"/></g><path d="M182-130c37 4 62 22 62 59C244 23 116-4 24 0v-248c84 5 203-23 205 63 0 31-19 50-47 55zM76-148c40-3 101 13 101-30 0-44-60-28-101-31v61zm0 110c48-3 116 14 116-37 0-48-69-32-116-35v72" id="aS"/><g id="u"><use transform="matrix(0.044444444444444446,0,0,0.044444444444444446,0,0)" xlink:href="#aS"/><use transform="matrix(0.044444444444444446,0,0,0.044444444444444446,11.511111111111111,0)" xlink:href="#ao"/><use transform="matrix(0.044444444444444446,0,0,0.044444444444444446,20.4,0)" xlink:href="#ag"/><use transform="matrix(0.044444444444444446,0,0,0.044444444444444446,29.28888888888889,0)" xlink:href="#ai"/><use transform="matrix(0.044444444444444446,0,0,0.044444444444444446,38.17777777777778,0)" xlink:href="#ae"/><use transform="matrix(0.044444444444444446,0,0,0.044444444444444446,48.84444444444445,0)" xlink:href="#af"/><use transform="matrix(0.044444444444444446,0,0,0.044444444444444446,57.733333333333334,0)" xlink:href="#ag"/><use transform="matrix(0.044444444444444446,0,0,0.044444444444444446,66.62222222222222,0)" xlink:href="#ah"/><use transform="matrix(0.044444444444444446,0,0,0.044444444444444446,71.91111111111111,0)" xlink:href="#ai"/><use transform="matrix(0.044444444444444446,0,0,0.044444444444444446,80.8,0)" xlink:href="#aj"/><use transform="matrix(0.044444444444444446,0,0,0.044444444444444446,95.02222222222223,0)" xlink:href="#aO"/><use transform="matrix(0.044444444444444446,0,0,0.044444444444444446,106.53333333333333,0)" xlink:href="#ah"/><use transform="matrix(0.044444444444444446,0,0,0.044444444444444446,111.82222222222222,0)" xlink:href="#aP"/><use transform="matrix(0.044444444444444446,0,0,0.044444444444444446,116.26666666666667,0)" xlink:href="#aG"/><use transform="matrix(0.044444444444444446,0,0,0.044444444444444446,120.71111111111112,0)" xlink:href="#aH"/><use transform="matrix(0.044444444444444446,0,0,0.044444444444444446,129.24444444444444,0)" xlink:href="#ao"/><use transform="matrix(0.044444444444444446,0,0,0.044444444444444446,138.13333333333333,0)" xlink:href="#ag"/><use transform="matrix(0.044444444444444446,0,0,0.044444444444444446,147.0222222222222,0)" xlink:href="#aQ"/></g><path d="M147 0H94L2-248h55l64 206c17-72 42-137 63-206h54" id="aT"/><g id="v"><use transform="matrix(0.044444444444444446,0,0,0.044444444444444446,0,0)" xlink:href="#as"/><use transform="matrix(0.044444444444444446,0,0,0.044444444444444446,9.733333333333334,0)" xlink:href="#ai"/><use transform="matrix(0.044444444444444446,0,0,0.044444444444444446,18.622222222222224,0)" xlink:href="#ah"/><use transform="matrix(0.044444444444444446,0,0,0.044444444444444446,23.91111111111111,0)" xlink:href="#aH"/><use transform="matrix(0.044444444444444446,0,0,0.044444444444444446,32.44444444444444,0)" xlink:href="#ai"/><use transform="matrix(0.044444444444444446,0,0,0.044444444444444446,41.33333333333333,0)" xlink:href="#aG"/><use transform="matrix(0.044444444444444446,0,0,0.044444444444444446,45.77777777777777,0)" xlink:href="#ai"/><use transform="matrix(0.044444444444444446,0,0,0.044444444444444446,54.66666666666666,0)" xlink:href="#aj"/><use transform="matrix(0.044444444444444446,0,0,0.044444444444444446,68.88888888888889,0)" xlink:href="#ai"/><use transform="matrix(0.044444444444444446,0,0,0.044444444444444446,77.77777777777777,0)" xlink:href="#ah"/><use transform="matrix(0.044444444444444446,0,0,0.044444444444444446,83.06666666666666,0)" xlink:href="#al"/><use transform="matrix(0.044444444444444446,0,0,0.044444444444444446,89.28888888888889,0)" xlink:href="#af"/><use transform="matrix(0.044444444444444446,0,0,0.044444444444444446,98.17777777777778,0)" xlink:href="#aT"/><use transform="matrix(0.044444444444444446,0,0,0.044444444444444446,107.95555555555556,0)" xlink:href="#ao"/><use transform="matrix(0.044444444444444446,0,0,0.044444444444444446,116.84444444444445,0)" xlink:href="#aG"/><use transform="matrix(0.044444444444444446,0,0,0.044444444444444446,121.28888888888889,0)" xlink:href="#aN"/><use transform="matrix(0.044444444444444446,0,0,0.044444444444444446,131.02222222222224,0)" xlink:href="#ai"/><use transform="matrix(0.044444444444444446,0,0,0.044444444444444446,139.91111111111113,0)" xlink:href="#aI"/><use transform="matrix(0.044444444444444446,0,0,0.044444444444444446,145.20000000000002,0)" xlink:href="#aJ"/></g><use transform="matrix(0.044444444444444446,0,0,0.044444444444444446,0,0)" xlink:href="#aK" id="w"/><g id="x"><use transform="matrix(0.044444444444444446,0,0,0.044444444444444446,0,0)" xlink:href="#as"/><use transform="matrix(0.044444444444444446,0,0,0.044444444444444446,9.733333333333334,0)" xlink:href="#ai"/><use transform="matrix(0.044444444444444446,0,0,0.044444444444444446,18.622222222222224,0)" xlink:href="#ah"/><use transform="matrix(0.044444444444444446,0,0,0.044444444444444446,23.91111111111111,0)" xlink:href="#ae"/><use transform="matrix(0.044444444444444446,0,0,0.044444444444444446,34.57777777777778,0)" xlink:href="#af"/><use transform="matrix(0.044444444444444446,0,0,0.044444444444444446,43.46666666666667,0)" xlink:href="#ag"/><use transform="matrix(0.044444444444444446,0,0,0.044444444444444446,52.355555555555554,0)" xlink:href="#ah"/><use transform="matrix(0.044444444444444446,0,0,0.044444444444444446,57.644444444444446,0)" xlink:href="#ai"/><use transform="matrix(0.044444444444444446,0,0,0.044444444444444446,66.53333333333333,0)" xlink:href="#aj"/><use transform="matrix(0.044444444444444446,0,0,0.044444444444444446,80.75555555555556,0)" xlink:href="#aO"/><use transform="matrix(0.044444444444444446,0,0,0.044444444444444446,92.26666666666667,0)" xlink:href="#ah"/><use transform="matrix(0.044444444444444446,0,0,0.044444444444444446,97.55555555555556,0)" xlink:href="#aP"/><use transform="matrix(0.044444444444444446,0,0,0.044444444444444446,102,0)" xlink:href="#aG"/><use transform="matrix(0.044444444444444446,0,0,0.044444444444444446,106.44444444444444,0)" xlink:href="#aI"/><use transform="matrix(0.044444444444444446,0,0,0.044444444444444446,111.73333333333333,0)" xlink:href="#aJ"/></g><g id="y"><use transform="matrix(0.044444444444444446,0,0,0.044444444444444446,0,0)" xlink:href="#as"/><use transform="matrix(0.044444444444444446,0,0,0.044444444444444446,9.733333333333334,0)" xlink:href="#ai"/><use transform="matrix(0.044444444444444446,0,0,0.044444444444444446,18.622222222222224,0)" xlink:href="#ap"/><use transform="matrix(0.044444444444444446,0,0,0.044444444444444446,28.355555555555558,0)" xlink:href="#ai"/><use transform="matrix(0.044444444444444446,0,0,0.044444444444444446,37.24444444444445,0)" xlink:href="#al"/><use transform="matrix(0.044444444444444446,0,0,0.044444444444444446,43.46666666666667,0)" xlink:href="#ao"/><use transform="matrix(0.044444444444444446,0,0,0.044444444444444446,52.355555555555554,0)" xlink:href="#ah"/><use transform="matrix(0.044444444444444446,0,0,0.044444444444444446,57.644444444444446,0)" xlink:href="#ai"/><use transform="matrix(0.044444444444444446,0,0,0.044444444444444446,66.53333333333333,0)" xlink:href="#aH"/><use transform="matrix(0.044444444444444446,0,0,0.044444444444444446,75.06666666666666,0)" xlink:href="#ai"/><use transform="matrix(0.044444444444444446,0,0,0.044444444444444446,83.95555555555555,0)" xlink:href="#aG"/><use transform="matrix(0.044444444444444446,0,0,0.044444444444444446,88.39999999999999,0)" xlink:href="#ai"/><use transform="matrix(0.044444444444444446,0,0,0.044444444444444446,97.28888888888888,0)" xlink:href="#aj"/><use transform="matrix(0.044444444444444446,0,0,0.044444444444444446,111.51111111111112,0)" xlink:href="#ai"/><use transform="matrix(0.044444444444444446,0,0,0.044444444444444446,120.39999999999999,0)" xlink:href="#ah"/><use transform="matrix(0.044444444444444446,0,0,0.044444444444444446,125.68888888888887,0)" xlink:href="#al"/><use transform="matrix(0.044444444444444446,0,0,0.044444444444444446,131.9111111111111,0)" xlink:href="#af"/><use transform="matrix(0.044444444444444446,0,0,0.044444444444444446,140.79999999999998,0)" xlink:href="#aI"/><use transform="matrix(0.044444444444444446,0,0,0.044444444444444446,146.08888888888887,0)" xlink:href="#aJ"/></g></defs></g></svg>